<svg width="925" height="571" viewBox="0 0 925 571" fill="none" xmlns="http://www.w3.org/2000/svg">
<g clip-path="url(#clip0_78_3656)">
<path d="M0 -2.73538L47.1048 44.3515C62.7851 60.029 84.0504 68.8363 106.224 68.8363C128.397 68.8363 149.662 60.029 165.343 44.3515L192.28 17.4139C195.015 14.6811 198.722 13.146 202.588 13.146C206.454 13.146 210.162 14.6811 212.896 17.4139L213.166 17.6653C214.566 19.0631 215.676 20.7231 216.434 22.5504C217.192 24.3777 217.582 26.3365 217.582 28.3146C217.582 30.2928 217.192 32.2516 216.434 34.0789C215.676 35.9062 214.566 37.5662 213.166 38.964L127.648 124.536C113.351 138.838 105.32 158.233 105.32 178.456C105.32 198.678 113.351 218.073 127.648 232.376C134.728 239.459 143.133 245.078 152.385 248.912C161.637 252.745 171.553 254.719 181.568 254.719C191.583 254.719 201.499 252.745 210.751 248.912C220.003 245.078 228.409 239.459 235.488 232.376L496.764 -28.8828L554.231 -21.035L459.052 74.1444C449.178 84.0137 441.346 95.7316 436.003 108.629C430.659 121.526 427.909 135.349 427.909 149.309C427.909 163.269 430.659 177.093 436.003 189.99C441.346 202.887 449.178 214.605 459.052 224.474C478.989 244.405 506.025 255.602 534.217 255.602C562.408 255.602 589.444 244.405 609.381 224.474L754.844 79.0111C756.345 77.507 758.128 76.3138 760.091 75.4996C762.054 74.6854 764.158 74.2664 766.284 74.2664C768.409 74.2664 770.513 74.6854 772.476 75.4996C774.439 76.3138 776.222 77.507 777.723 79.0111C779.224 80.512 780.415 82.294 781.228 84.2552C782.041 86.2165 782.459 88.3187 782.459 90.4416C782.459 92.5645 782.041 94.6667 781.228 96.628C780.415 98.5892 779.224 100.371 777.723 101.872L562.456 317.211C556.874 322.789 552.446 329.413 549.425 336.704C546.404 343.994 544.849 351.809 544.849 359.7C544.849 367.592 546.404 375.406 549.425 382.697C552.446 389.988 556.874 396.611 562.456 402.19C573.724 413.453 589.004 419.781 604.936 419.781C620.869 419.781 636.149 413.453 647.417 402.19L796.615 252.992C798.224 251.382 800.135 250.105 802.238 249.233C804.341 248.362 806.595 247.913 808.872 247.913C811.148 247.913 813.402 248.362 815.505 249.233C817.608 250.105 819.519 251.382 821.128 252.992C824.371 256.247 826.192 260.654 826.192 265.248C826.192 269.843 824.371 274.25 821.128 277.505L818.471 280.109C794.678 303.905 781.312 336.178 781.312 369.829C781.312 403.48 794.678 435.752 818.471 459.549L929.812 570.891V-74.5688" fill="#D5F9F3"/>
<path d="M808.904 553.685C824.995 547.02 832.636 528.574 825.971 512.483C819.306 496.393 800.859 488.752 784.769 495.416C768.678 502.081 761.037 520.528 767.702 536.619C774.367 552.709 792.814 560.35 808.904 553.685Z" fill="#FEDC2B"/>
<path d="M77.2646 167.529C96.1884 167.529 111.529 152.188 111.529 133.265C111.529 114.341 96.1884 99 77.2646 99C58.3408 99 43 114.341 43 133.265C43 152.188 58.3408 167.529 77.2646 167.529Z" fill="#AAD5FD"/>
<path d="M441.56 298.768C444.694 298.768 447.235 296.227 447.235 293.093C447.235 289.959 444.694 287.418 441.56 287.418C438.426 287.418 435.885 289.959 435.885 293.093C435.885 296.227 438.426 298.768 441.56 298.768Z" fill="#31346B"/>
<path d="M441.56 328.363C444.694 328.363 447.235 325.822 447.235 322.688C447.235 319.554 444.694 317.013 441.56 317.013C438.426 317.013 435.885 319.554 435.885 322.688C435.885 325.822 438.426 328.363 441.56 328.363Z" fill="#31346B"/>
<path d="M470.401 298.768C473.536 298.768 476.076 296.227 476.076 293.093C476.076 289.959 473.536 287.418 470.401 287.418C467.267 287.418 464.727 289.959 464.727 293.093C464.727 296.227 467.267 298.768 470.401 298.768Z" fill="#31346B"/>
<path d="M470.401 328.363C473.536 328.363 476.076 325.822 476.076 322.688C476.076 319.554 473.536 317.013 470.401 317.013C467.267 317.013 464.727 319.554 464.727 322.688C464.727 325.822 467.267 328.363 470.401 328.363Z" fill="#31346B"/>
<path d="M724.063 340.718C731.79 340.718 738.053 334.455 738.053 326.729C738.053 319.003 731.79 312.739 724.063 312.739C716.337 312.739 710.074 319.003 710.074 326.729C710.074 334.455 716.337 340.718 724.063 340.718Z" fill="#AAD5FD"/>
<path d="M712.336 239.182L940.731 10.7871" stroke="white" stroke-width="3" stroke-miterlimit="10" stroke-linecap="round"/>
<path d="M304.197 99.1062L423.782 -20.4785" stroke="white" stroke-width="3" stroke-miterlimit="10" stroke-linecap="round"/>
<path d="M348.941 139.883C357.193 139.883 363.883 133.193 363.883 124.941C363.883 116.689 357.193 110 348.941 110C340.689 110 334 116.689 334 124.941C334 133.193 340.689 139.883 348.941 139.883Z" fill="#AFEFE5"/>
<path d="M846.791 235.428C855.043 235.428 861.732 228.739 861.732 220.487C861.732 212.235 855.043 205.545 846.791 205.545C838.539 205.545 831.849 212.235 831.849 220.487C831.849 228.739 838.539 235.428 846.791 235.428Z" fill="#FEDC2B"/>
<path d="M685.417 -20.9095L576.032 88.439C573.616 90.851 571.698 93.716 570.39 96.8699C569.082 100.024 568.408 103.405 568.408 106.819C568.408 110.234 569.082 113.615 570.39 116.769C571.698 119.923 573.616 122.788 576.032 125.2C580.905 130.071 587.514 132.808 594.404 132.808C601.294 132.808 607.902 130.071 612.775 125.2L671.212 66.7453C672.89 65.1 675.147 64.1785 677.497 64.1785C679.847 64.1785 682.104 65.1 683.783 66.7453C685.428 68.4237 686.349 70.6804 686.349 73.0307C686.349 75.381 685.428 77.6377 683.783 79.3161L664.028 99.2858C662.721 100.59 661.685 102.14 660.977 103.845C660.27 105.551 659.905 107.379 659.905 109.226C659.905 111.072 660.27 112.901 660.977 114.606C661.685 116.312 662.721 117.861 664.028 119.166C665.333 120.473 666.882 121.51 668.588 122.217C670.293 122.925 672.122 123.289 673.968 123.289C675.815 123.289 677.643 122.925 679.349 122.217C681.055 121.51 682.604 120.473 683.908 119.166L737.496 65.6498C741.021 62.1236 745.207 59.3264 749.814 57.4179C754.42 55.5095 759.358 54.5272 764.344 54.5272C769.33 54.5272 774.267 55.5095 778.874 57.4179C783.481 59.3264 787.666 62.1236 791.192 65.6498L792.664 67.1224L896.823 -37.0361C896.823 -37.0361 685.417 -22.1127 685.417 -20.9095Z" fill="#AFEFE5"/>
<path d="M387.488 -77.0112L177.034 133.425" stroke="#31346B" stroke-width="3" stroke-miterlimit="10" stroke-linecap="round"/>
<path d="M799.453 73.5878L791.192 65.6502C791.192 65.6502 879.673 -34.4318 881.756 -36.497C883.839 -38.5622 945.49 -29.7806 945.49 -29.7806L847.204 72.7258C844.135 75.9337 840.46 78.5023 836.393 80.2833C832.326 82.0642 827.947 83.0224 823.508 83.1026C819.069 83.1827 814.658 82.3832 810.529 80.7502C806.4 79.1171 802.636 76.6829 799.453 73.5878Z" fill="#AFEFE5"/>
</g>
<defs>
<clipPath id="clip0_78_3656">
<rect width="945.49" height="650.524" fill="white" transform="translate(0 -79.7051)"/>
</clipPath>
</defs>
</svg>
