<svg width="395" height="427" viewBox="0 0 395 427" fill="none" xmlns="http://www.w3.org/2000/svg">
<g clip-path="url(#clip0_93_371)">
<path fill-rule="evenodd" clip-rule="evenodd" d="M305.602 107.572C298.067 98.3555 289.15 90.3598 279.169 83.869C273.481 80.218 267.409 77.2032 261.063 74.8791C252.053 71.5028 242.557 69.2133 233.259 67.1205C221.115 64.3975 209.236 62.299 197.329 61.6053C184.861 60.7704 172.338 61.8011 160.174 64.6635C134.874 70.7338 113.634 84.6205 98.7024 103.444C83.771 122.268 75.0793 146.243 75.1198 172.259C75.1198 192.245 80.9374 210.288 90.1553 226.696C103.045 249.601 122.736 269.281 142.132 286.601V286.914L142.959 316.363C143.034 317.942 142.623 323.879 143.179 326.405C143.277 326.831 143.403 327.25 143.554 327.66C143.388 328.286 143.301 328.931 143.294 329.579L142.889 370.627C142.999 374.442 143.121 378.9 143.971 383.039C144.599 386.717 146.055 390.204 148.23 393.236C150.405 396.268 153.242 398.765 156.525 400.539C160.782 403.019 165.732 404.586 170.266 405.667C170.844 405.811 174.007 406.216 176.187 406.488C181.351 414.42 188.198 422.502 196.265 425.502C203.205 428.081 211.191 427.763 220.114 421.143L227.724 410.668L231.269 410.436L251.932 408.459C254.175 407.708 257.234 405.228 258.674 400.498C260.114 395.769 260.658 387.329 260.826 385.265C262.211 367.343 259.455 349.342 252.77 332.655C254.18 329.723 255.137 326.595 255.609 323.376C256.818 315.889 256.246 306.882 256.373 301.037C256.373 300.332 256.28 296.99 256.193 294.712C273.178 282.346 288.213 265.586 299.785 246.728C312.091 226.678 320.476 204.282 323.24 182.37C324.287 174.08 325.206 165.605 324.975 157.239C324.868 151.261 324.033 145.319 322.488 139.543C319.302 127.888 313.311 117.077 305.602 107.572ZM195.728 249.908C200.306 249.991 204.885 249.744 209.427 249.167C210.185 249.069 210.942 248.965 211.694 248.844C210.225 261.563 210.844 274.738 212.949 287.717C215.175 300.969 218.698 313.97 223.468 326.533C214.443 326.934 205.403 326.845 196.387 326.267C189.364 325.814 182.373 324.945 175.453 323.665C179.672 316.342 183.251 308.669 186.151 300.731C189.651 291.058 192.17 281.058 193.669 270.882C194.346 266.344 195.178 261.563 195.566 256.81C195.756 254.515 195.808 252.21 195.722 249.908H195.728ZM195.34 341.83C204.931 342.448 214.549 342.544 224.151 342.119C226.84 342.009 233.675 341.969 239.331 341.096C240.412 344.05 241.337 347.085 242.147 350.172C236.828 351.086 231.466 351.732 226.082 352.109C216.355 352.809 206.594 352.82 196.734 352.838C188.187 352.838 179.327 352.878 170.624 352.057C166.621 351.688 162.644 351.086 158.711 350.253L158.85 336.482C161.701 336.956 164.512 337.292 166.449 337.737C175.953 339.869 185.612 341.243 195.334 341.847L195.34 341.83ZM170.069 357.885C178.963 358.729 187.996 358.705 196.745 358.694C206.738 358.694 216.639 358.659 226.504 357.948C232.191 357.549 237.854 356.86 243.471 355.884C243.72 357.139 243.992 358.387 244.2 359.654C244.743 362.949 245.085 366.267 245.304 369.58C233.739 370.875 222.173 370.904 210.653 370.337C193.276 369.488 175.956 367.337 158.544 366.192L158.648 356.208C162.421 356.971 166.231 357.537 170.063 357.902L170.069 357.885ZM243.98 393.867L230.332 394.85C228.939 394.937 225.076 394.995 222.647 395.625C220.806 396.062 219.11 396.97 217.726 398.261L210.827 408.604C206.385 411.899 202.621 411.778 199.423 409.662C194.571 406.453 190.806 400.55 187.713 395.463C186.419 393.477 184.392 392.085 182.074 391.589C180.016 391.081 174.84 390.699 173.891 390.474C171.607 389.959 169.368 389.263 167.195 388.392L187.475 390.439C199.839 391.763 212.481 393.214 225.064 393.544C231.411 393.731 237.763 393.554 244.09 393.012C244.038 393.301 243.98 393.601 243.98 393.867ZM245.281 383.981C245.241 384.45 245.096 385.612 244.911 387.028C238.377 387.658 231.811 387.878 225.249 387.687C212.816 387.369 200.331 385.924 188.123 384.611L160.469 381.836L158.862 372.089C176.06 373.245 193.218 375.361 210.405 376.205C222.109 376.784 233.819 376.749 245.565 375.465C245.547 378.333 245.489 381.183 245.258 383.981H245.281ZM307.736 180.411C305.238 200.212 297.587 220.434 286.467 238.553C275.346 256.672 260.802 272.634 244.304 283.994C243.289 284.73 242.439 285.671 241.81 286.755C241.18 287.839 240.785 289.043 240.649 290.29C240.273 292.903 240.782 299.337 240.753 300.696C240.649 305.321 241.094 312.155 240.499 318.375C240.267 320.855 239.961 323.243 239.105 325.093C237.549 325.255 233.282 325.671 229.517 326.053C224.593 313.369 220.975 300.216 218.72 286.798C216.598 273.726 216.031 260.47 217.732 247.693C224.844 246.051 231.535 243.456 237.133 239.808C240.707 237.495 245.432 233.269 248.074 228.54C250.174 224.782 250.966 220.712 249.526 216.862C247.791 212.185 243.94 209.751 239.626 209.149C235.526 208.633 231.38 209.639 227.973 211.976C224.363 214.587 221.381 217.97 219.247 221.88C216.13 227.372 214.308 233.772 213.117 239.721C212.909 240.738 212.716 241.758 212.538 242.779C211.26 243.01 209.959 243.207 208.664 243.357C204.158 243.931 199.615 244.16 195.074 244.039C194.471 240.629 193.39 237.321 191.865 234.211C189.765 230.008 186.77 226.331 182.809 223.909C180.757 222.697 178.484 221.905 176.124 221.578C173.763 221.252 171.361 221.398 169.057 222.007C167.374 222.462 165.814 223.288 164.492 224.423C163.169 225.558 162.117 226.975 161.412 228.569C159.29 233.367 161.204 237.686 165.096 241.103C169.549 245.005 176.661 247.618 180.415 248.341C183.53 248.941 186.677 249.366 189.841 249.613C189.937 251.851 189.887 254.093 189.69 256.325C189.32 260.95 188.499 265.575 187.84 270.009C186.403 279.797 183.984 289.416 180.617 298.719C177.611 306.952 173.846 314.887 169.369 322.422L158.497 320.364C158.538 318.485 158.578 316.19 158.544 315.537L157.734 286.451C157.706 285.386 157.458 284.339 157.005 283.375C157.152 282.129 156.995 280.866 156.548 279.693C156.101 278.52 155.377 277.473 154.438 276.64C135.69 260.007 116.271 241.189 103.757 219.007C95.8167 204.894 90.7278 189.406 90.7104 172.213C90.7104 149.88 98.0721 129.379 110.951 113.174C123.829 96.9694 142.08 85.0888 163.829 79.8741C174.502 77.3714 185.49 76.4752 196.427 77.2148C207.502 77.8623 218.553 79.851 229.852 82.3832C238.469 84.3141 247.253 86.3953 255.586 89.523C260.857 91.4448 265.899 93.9421 270.622 96.9694C279.243 102.563 286.948 109.455 293.464 117.4C299.825 125.223 304.804 134.085 307.441 143.676C308.648 148.235 309.294 152.923 309.367 157.638C309.575 165.241 308.691 172.901 307.742 180.411H307.736ZM218.761 241.397L218.865 240.854C219.941 235.495 221.537 229.708 224.347 224.753C226.052 221.598 228.443 218.866 231.344 216.758C233.528 215.252 236.19 214.602 238.822 214.931C239.973 215.041 241.07 215.47 241.99 216.171C242.91 216.872 243.615 217.816 244.026 218.897C244.865 221.14 244.165 223.481 242.945 225.666C240.771 229.551 236.85 232.968 233.918 234.888C229.236 237.834 224.122 240.031 218.761 241.397ZM189.037 243.675C186.452 243.432 183.936 243.097 181.519 242.606C178.471 242.028 172.596 239.912 168.947 236.709C167.108 235.096 165.755 233.211 166.755 230.927C167.756 228.644 169.895 227.597 172.174 227.308C174.82 226.994 177.496 227.559 179.79 228.916C182.814 230.766 185.052 233.616 186.654 236.83C187.724 239.007 188.526 241.306 189.043 243.675H189.037Z" fill="#232323" fill-opacity="0.8"/>
<path fill-rule="evenodd" clip-rule="evenodd" d="M332.354 279.392C332.075 279.126 331.745 278.918 331.386 278.78C331.026 278.641 330.642 278.575 330.256 278.584C329.871 278.594 329.491 278.68 329.138 278.836C328.786 278.992 328.468 279.217 328.202 279.496C327.936 279.775 327.728 280.105 327.589 280.464C327.451 280.824 327.384 281.208 327.394 281.593C327.404 281.979 327.489 282.358 327.646 282.711C327.802 283.063 328.026 283.381 328.306 283.647L351.438 304.234C352.02 304.719 352.768 304.96 353.524 304.906C354.28 304.852 354.986 304.507 355.494 303.944C356.001 303.381 356.27 302.643 356.245 301.885C356.22 301.128 355.902 300.409 355.358 299.881L332.354 279.392Z" fill="#232323" fill-opacity="0.8"/>
<path fill-rule="evenodd" clip-rule="evenodd" d="M392.022 162.2L365.895 163.281C365.511 163.308 365.137 163.41 364.793 163.582C364.449 163.753 364.142 163.991 363.89 164.281C363.638 164.571 363.445 164.908 363.323 165.273C363.201 165.637 363.153 166.022 363.18 166.406C363.207 166.789 363.309 167.163 363.48 167.507C363.652 167.851 363.89 168.158 364.18 168.41C364.47 168.662 364.807 168.855 365.172 168.976C365.537 169.098 365.922 169.147 366.305 169.12L392.149 168.05C392.533 168.042 392.912 167.958 393.264 167.803C393.616 167.649 393.934 167.426 394.199 167.149C394.465 166.871 394.674 166.544 394.813 166.186C394.952 165.828 395.02 165.446 395.011 165.062C395.003 164.677 394.919 164.299 394.764 163.947C394.61 163.595 394.387 163.277 394.109 163.012C393.832 162.746 393.505 162.538 393.146 162.398C392.788 162.259 392.406 162.192 392.022 162.2Z" fill="#232323" fill-opacity="0.8"/>
<path fill-rule="evenodd" clip-rule="evenodd" d="M332.944 77.0067L352.773 57.1595C353.052 56.8807 353.272 56.5486 353.419 56.183C353.566 55.8175 353.638 55.426 353.631 55.032C353.623 54.638 353.536 54.2494 353.375 53.8897C353.214 53.53 352.982 53.2065 352.693 52.9385C352.404 52.6706 352.064 52.4636 351.693 52.3301C351.322 52.1965 350.928 52.1392 350.534 52.1614C350.141 52.1836 349.756 52.2848 349.402 52.4592C349.048 52.6336 348.734 52.8775 348.477 53.1762L328.931 72.7401C328.403 73.281 328.104 74.0045 328.098 74.7599C328.091 75.5154 328.376 76.2443 328.893 76.7947C329.411 77.345 330.121 77.6743 330.876 77.7138C331.631 77.7533 332.371 77.5 332.944 77.0067Z" fill="#232323" fill-opacity="0.8"/>
<path fill-rule="evenodd" clip-rule="evenodd" d="M182.843 35.9885C183.619 35.987 184.363 35.6784 184.913 35.1303C185.462 34.5822 185.772 33.839 185.775 33.0631L184.977 2.82703C184.95 2.05118 184.615 1.31806 184.047 0.78897C183.478 0.25988 182.723 -0.0218406 181.947 0.00575871C181.171 0.033358 180.438 0.367992 179.908 0.936114C179.379 1.50424 179.097 2.2593 179.125 3.03515L179.917 33.0515C179.916 33.4365 179.991 33.8177 180.138 34.1736C180.285 34.5295 180.5 34.8531 180.772 35.1258C181.044 35.3985 181.366 35.6151 181.722 35.7631C182.077 35.9111 182.458 35.9877 182.843 35.9885Z" fill="#232323" fill-opacity="0.8"/>
<path fill-rule="evenodd" clip-rule="evenodd" d="M64.9997 92.4776C65.5778 91.9596 65.9268 91.2336 65.9702 90.4586C66.0136 89.6837 65.7477 88.9233 65.231 88.344L43.0826 66.2825C42.5354 65.7548 41.8045 65.4602 41.0441 65.4609C40.2838 65.4617 39.5535 65.7576 39.0072 66.2864C38.461 66.8152 38.1417 67.5354 38.1166 68.2951C38.0915 69.0548 38.3625 69.7947 38.8726 70.3584L60.8476 92.2464C61.1044 92.5351 61.4158 92.7701 61.7638 92.9381C62.1118 93.1061 62.4896 93.2037 62.8755 93.2252C63.2614 93.2467 63.6478 93.1918 64.0123 93.0635C64.3768 92.9352 64.7124 92.736 64.9997 92.4776Z" fill="#232323" fill-opacity="0.8"/>
<path fill-rule="evenodd" clip-rule="evenodd" d="M32.9047 183.891L3.34261 180.422C2.94848 180.338 2.54122 180.336 2.14636 180.417C1.7515 180.498 1.37755 180.659 1.04795 180.891C0.718355 181.123 0.440198 181.42 0.230956 181.764C0.0217135 182.109 -0.114112 182.493 -0.16803 182.892C-0.221947 183.291 -0.192785 183.697 -0.0823663 184.085C0.0280527 184.472 0.21735 184.833 0.473651 185.144C0.729951 185.455 1.04774 185.709 1.40709 185.892C1.76643 186.074 2.1596 186.18 2.56193 186.204L32.0546 189.701C32.7878 189.744 33.5101 189.509 34.0788 189.045C34.6475 188.58 35.0212 187.919 35.1258 187.193C35.2305 186.466 35.0586 185.727 34.6441 185.121C34.2296 184.515 33.6027 184.086 32.8874 183.92L32.9047 183.891Z" fill="#232323" fill-opacity="0.8"/>
<path fill-rule="evenodd" clip-rule="evenodd" d="M84.9506 270.136L63.3226 286.59C62.988 286.799 62.6992 287.074 62.4734 287.398C62.2477 287.722 62.0896 288.087 62.0087 288.474C61.9279 288.86 61.9258 289.258 62.0028 289.646C62.0797 290.033 62.234 290.4 62.4565 290.726C62.6789 291.052 62.9649 291.33 63.2973 291.543C63.6297 291.755 64.0017 291.899 64.3909 291.965C64.7801 292.03 65.1786 292.017 65.5624 291.924C65.9462 291.832 66.3075 291.664 66.6246 291.429L88.6343 274.698C89.2393 274.209 89.6255 273.501 89.708 272.728C89.7904 271.955 89.5623 271.181 89.0738 270.576C88.5853 269.971 87.8764 269.585 87.1032 269.502C86.3299 269.42 85.5556 269.648 84.9506 270.136Z" fill="#232323" fill-opacity="0.8"/>
</g>
<defs>
<clipPath id="clip0_93_371">
<rect width="395" height="427" fill="white"/>
</clipPath>
</defs>
</svg>
